<?xml version="1.0" encoding="UTF-8" standalone="no"?>
<!-- Created with Inkscape (http://www.inkscape.org/) -->

<svg
   width="238.26048mm"
   height="74.262939mm"
   viewBox="0 0 238.26048 74.262939"
   version="1.1"
   id="svg1"
   xmlns:xlink="http://www.w3.org/1999/xlink"
   xmlns="http://www.w3.org/2000/svg"
   xmlns:svg="http://www.w3.org/2000/svg">
  <defs
     id="defs1">
    <linearGradient
       id="linearGradient20">
      <stop
         style="stop-color:#212529;stop-opacity:1;"
         offset="0"
         id="stop19" />
      <stop
         style="stop-color:#495057;stop-opacity:1;"
         offset="0.60123098"
         id="stop20" />
    </linearGradient>
    <linearGradient
       id="linearGradient15">
      <stop
         style="stop-color:#cc5de8;stop-opacity:1;"
         offset="0"
         id="stop16" />
      <stop
         style="stop-color:#845ef7;stop-opacity:1;"
         offset="1"
         id="stop17" />
    </linearGradient>
    <linearGradient
       id="linearGradient13">
      <stop
         style="stop-color:#adb5bd;stop-opacity:1;"
         offset="0"
         id="stop14" />
      <stop
         style="stop-color:#adb5bd;stop-opacity:1;"
         offset="1"
         id="stop15" />
    </linearGradient>
    <radialGradient
       xlink:href="#linearGradient20"
       id="radialGradient13"
       cx="100.33557"
       cy="90.944939"
       fx="100.33557"
       fy="90.944939"
       r="24.999996"
       gradientTransform="matrix(1,0,0,0.60000015,-8.7e-5,36.377961)"
       gradientUnits="userSpaceOnUse" />
    <radialGradient
       xlink:href="#linearGradient13"
       id="radialGradient15"
       cx="100.33549"
       cy="80.945122"
       fx="100.33549"
       fy="80.945122"
       r="25.000025"
       gradientTransform="matrix(1,0,0,0.19999801,0,64.756258)"
       gradientUnits="userSpaceOnUse" />
    <linearGradient
       xlink:href="#linearGradient15"
       id="linearGradient17"
       x1="92.871643"
       y1="50.072441"
       x2="107.80908"
       y2="68.473106"
       gradientUnits="userSpaceOnUse" />
  </defs>
  <g
     id="layer1"
     transform="translate(360.99894,-233.90844)">
    <g
       id="g15"
       transform="translate(-436.33439,187.22637)">
      <path
         style="fill:url(#radialGradient13);stroke-width:0.352777"
         d="m 75.335489,85.944936 10,-10 39.999991,20 -10,10.000004 z"
         id="path10" />
      <path
         id="path4-1-2"
         style="fill:#868e96;stroke-width:0.352777"
         d="m 97.835381,77.435516 v 38.509284 5.00021 l 5.000209,-5.00021 V 77.435516 Z" />
      <path
         id="path4-6"
         style="fill:url(#radialGradient15);stroke-width:0.352777"
         d="m 85.335368,75.945166 -9.999906,9.99991 h 9.999906 30.000232 l 9.99991,-9.99991 h -9.99991 z" />
      <path
         id="path4-6-1"
         style="fill:#adb5bd;stroke-width:0.352777"
         d="m 85.335368,95.944976 -9.999906,9.999914 h 9.999906 30.000232 l 9.99991,-9.999914 h -9.99991 z" />
      <circle
         style="fill:url(#linearGradient17);stroke:none;stroke-width:0.352777"
         id="path15"
         cx="100.33549"
         cy="59.182053"
         r="12.5" />
    </g>
    <path
       style="font-size:50.8px;font-family:'Fira Sans';-inkscape-font-specification:'Fira Sans';text-align:center;text-anchor:middle;fill:#845ef7;stroke-width:0.352778"
       d="m -277.06877,252.9297 c -6.4516,0 -11.0236,3.7592 -11.0236,9.144 0,5.4356 3.556,8.0264 10.3632,10.1092 5.9436,1.8288 7.5692,3.3528 7.5692,6.7564 0,4.2164 -3.4036,6.2484 -7.5184,6.2484 -3.81,0 -6.5532,-1.3716 -9.144,-3.556 l -2.6924,2.9972 c 2.8956,2.8448 6.858,4.5212 11.8872,4.5212 7.874,0 12.4968,-4.2672 12.4968,-10.3632 0,-6.7056 -4.7752,-8.89 -10.3632,-10.6172 -6.2992,-1.9304 -7.6708,-3.3528 -7.6708,-6.2992 0,-3.3528 2.794,-4.9784 6.2992,-4.9784 2.8956,0 5.334,0.9144 7.9756,3.048 l 2.6416,-2.9464 c -2.9464,-2.6416 -5.9944,-4.064 -10.8204,-4.064 z m 31.2928,0 c -7.9248,0 -14.5288,6.2484 -14.5288,18.0848 0,11.7856 6.1468,18.1356 14.6304,18.1356 4.7244,0 8.128,-1.9304 10.0076,-3.9116 l -2.4384,-3.0988 c -1.9812,1.4732 -4.1148,2.9464 -7.4168,2.9464 -5.4356,0 -9.652,-3.9624 -9.652,-14.0716 0,-10.5664 4.4196,-14.1224 9.7028,-14.1224 2.4384,0 4.572,0.8128 6.7564,2.5908 l 2.6416,-3.0988 c -2.794,-2.2352 -5.2832,-3.4544 -9.7028,-3.4544 z m 35.15357,0.6096 h -18.9484 v 35.0012 h 19.3548 v -3.8608 h -14.5288 v -11.9888 h 11.7856 v -3.8608 h -11.7856 v -11.43 h 13.5636 z m 17.42439,0 h -9.1948 v 35.0012 h 4.826 v -12.8524 h 4.4196 c 7.7216,0 13.5636,-3.302 13.5636,-11.3284 0,-7.366 -5.1816,-10.8204 -13.6144,-10.8204 z m -0.1524,18.3388 h -4.2164 v -14.5796 h 4.318 c 5.1816,0 8.5344,1.8796 8.5344,7.112 0,5.9436 -3.4544,7.4676 -8.636,7.4676 z m 40.63996,-18.3388 h -24.9936 v 4.1148 h 9.9568 v 30.8864 h 4.826 v -30.8864 h 9.7028 z m 24.23161,35.0012 h 5.7404 l -9.4488,-15.6972 c 5.0292,-1.524 7.5692,-4.4704 7.5692,-9.398 0,-6.5532 -4.572,-9.906 -13.3096,-9.906 h -9.1948 v 35.0012 h 4.826 v -14.8336 h 5.4356 z m -13.8176,-18.542 v -12.7 h 4.318 c 5.7404,0 8.2296,1.778 8.2296,6.1468 0,4.7244 -2.794,6.5532 -7.6708,6.5532 z"
       id="text20"
       aria-label="SCEPTR" />
  </g>
</svg>
